/* XPM */
static char *_acc358d831f4d4df51006ba789ab0e1pm6o9rVzghALWIRv[] = {
/* columns rows colors chars-per-pixel */
"128 64 11 1 ",
"  c None",
". c black",
"X c #150D15",
"o c #151515",
"O c #222222",
"+ c #2C3143",
"@ c #2C3E52",
"# c #3B505A",
"$ c #555555",
"% c #6F676A",
"& c #868169",
/* pixels */
"                                                                                                                                ",
"                                                                                                                                ",
"                                                                                                                                ",
"                                                                                                                                ",
"                                                                                                                                ",
"                                                                                                                                ",
"                                                                                                                                ",
"                                                                                                                                ",
"                                                                                                                                ",
"                                                                                                                                ",
"                                                                                                                                ",
"                                                                                                                                ",
"                                                                                                                                ",
"                                      oo                                                                                        ",
"                                     o+#o                                                                                       ",
"                                    o+$$$o                                                                                      ",
"                                    o+###o                                                                                      ",
"                                    o+$$$o                                                                                      ",
"                                    o+###o                                                                                      ",
"                                    o+###o                                                                                      ",
"                                    o+%%%o                                                                                      ",
"                                    o+###o                                                                                      ",
"                                    o@&&&o                                                                                      ",
"                                    o+@@@o                                                                                      ",
"                                    o+$$$o                                                                                      ",
"                                   o+#&&##o                                                                                     ",
"                                   o++OO+#o   ooooooooooooooo                                                                   ",
"                                   o+@@@@+oooo+++@@@@@@@@@@##ooooooooooo                                                        ",
"                                  oo$$$$$#@@@@@@@@@@#@@@@####@@@@+@+@###oo                                                      ",
"                                oo$$$$$#@@@@@@@@#####$$$$$$$$##@@@@@@@#$$$o                                                     ",
"                              oo$$$$$#@@@@@@@@@#####$$$$$$$$$$###@@@@@@#$$$oo                                                   ",
"                             oO@$##@@+OOO++++@@@@@@@@@@@@######@@@@@+++@@#$$#o                                                  ",
"                            oO+@@+OOOXXXOOOOOOOOOOOOOOOOOOOOOOOOOOOOOOOOO+@##@o                                                 ",
"                           oXOOOOXXXXXXXXXXXXXXXXXXXXXXXXXXXXXXXXXXXXXXXXXXO+@Oo    oooooooo                                    ",
"                           oXXXXXXXXXXXXXXXXXXXXXX...........XXXXXXXXXXXXXXXXOOXoooo@@@@@#$$ooo                                 ",
"                          oXXXXXXXXXXX.................................XXXXXXXXXO@@@@@@@@@+@@@Oo                                ",
"                         oXXXXXXXX.....XXOO..oooooooooooooooooooo..........XXXXXX@@@####@+OOOOOXo                               ",
"                         oXXXXXX...OXX.XXXOXo                    ooo@++O.....XXXXO#####@@@@$$#@Oo                               ",
"                        oXXXXX....oOOOXXOOOo                    oo+##@@@+O....XXXX@##@@@@@#$$$$#Xo                              ",
"                        oXXXX....ooOO@@O++Oo                  ooXOO+OOXXOOX....XXXO@@@@@@@##$$$$@o                              ",
"                        oXXX...X.ooXO##+@@Oo                oo.XOOX....XXXXX.....XX@@@@#@@@@#$$$$@o                             ",
"                       oXXX....Xo oXX@@O++Oo               oX.X@$#@@OX...XXX.......O@######@@@#$$$@oo                           ",
"                       oXXX...XXo oXXXOXXOXo               oX.X+@@###@+OX..XOO+@@@+O+@######@@@####@Oo                          ",
"                       oXX....XXo o.......Xo              oX..XXOO+@###@+O+@@@@###$$#@@#######@@@###@Xo                         ",
"                      oXXX....XXo oXX....XXo              oX.XXXXXXO@#$#@#$##@@@@@@#$$$########@@@@##+Xo                        ",
"                      oXX....XXo  oXXOOOOOXo              oX.XXXXXXXO+@+@@@@@@@@+++@@##$#######@@@@@@@Oo                        ",
"                      oXX....XXo  oXO##+@@Oo              oX.XXXXXXXXXXOOOOOOO++++++++@@#######@@@@+OOXXo                       ",
"                      oXX....XXo  oXO@#+@@Oo              oXX..XXXXXX.XXXXXXXOOOOO++@@++@@#$$###@@@+OOXXXo                      ",
"                      oX......Xo  oXO##+@@Oo               oX.....XX.XXXXXXXXXXXOO++@@+OO+@@#@+@@++++OXXXXo                     ",
"                     oXX......o   oXX++OOOOo                o.......XXXXXXXXXXXXXOO++@++OOO@@@OO+++@@OXXXXo                     ",
"                     oX.......o   oX.XX.XXXo                 oo......XXXXXXXXXXXXXOO+++++O++++OXXO@@@@OOXXXo                    ",
"                     oX.......o   o.......Xo                   oo.......XXXXXXXXXXXOO++++++++OXXXXO+@@++OXXXo                   ",
"                     oX......Xo   oXX....XXo                     oo.......XXXXXXXXXXOOOOOO+++OXXXXXO@@@@+XXXo                   ",
"                 oooooX......Xo   oOX++OOOXo                     oOX......XXXXXXXXXXXOOOOOOOOOOXXXXX+@@@@OXXXo                  ",
"                oXXXXX.......Xooooo....X....oooooooooooooooooooooO@O......XXXXXXXXXXXXOOOOOOOOOXXXXXX+@@@@OXXXo                 ",
"               oXXXXXX......XXXXXOOOOOOOOOOOOOOO@@@@@@@@@@@@@@@@O@@@O.....XXXXXXXXXXXXXXXOOOOOOXXXXXXX+@+@+XXXo                 ",
"               oXX++OX.......XOOOOOOOOOOOOOOOO@@@@@@@@@@@@###@@@@@@@@@X....XXXXXXXXXXXXXXXXOOOXXXXXXXXX+OO+OXXXo                ",
"               oXO+++........XOO+OO++@@@@@@@@@@@@@@@@@@@######@@@@@@@@@O...XXXXXXXXXXXXXXXXXXXXXXXXXXXXXOOOOXXXo                ",
"               oX+++X.........XXOOOOO+++++++++++++@@@@@@@@@@@@@@@@++++++X...XXXXXXXXXXXXXXXXXXXXXXXXXXXXXXXOOXXXo               ",
"               oXO++X...........XXXXXOOOOOOOOOOOOOOOOOOOOOOOOOOOOOOOXXX......XXXXXXXXXXXXXXXXXXXXXXXXXXXXXXXXXXXo               ",
"               oXX++X....XXXXXXXXXXXXXXXXXXXXXXXXXXXXXXXXXXXXXXXXX..........XXXXXXXXXXXXXXXXXXXXXXXXXXXXXXXXXXXXXo              ",
"               oXXOXX....XXXXXXXXXXXXXXXXXXXXXXXXXXXXXXXXXXXX...............XXXXXXXXXXXXXXXXXXXXXXXXXXXXXXXXXXXXXo              ",
"              oXXXOXX...XXXXXXXXXXXXXXXXXXXXXXXXXXXXXXXXXXXXXXXX............XXXXXXXXXXXXXXXXXXXXXXXXXXXXXXXXXXXXXXo             ",
"             oXXXO+X....XXXXXXXXXXXXXXXXXXXXXXXXXXXXXXXXXXXXXXXX............XXXXXXXXXXXXXXXXXXXXXXXXXXXXXXXXXXXXXXo             "
};
