/* XPM */
static char *bWlzc2xlc2NhcmFybWJsdWU_[] = {
/* columns rows colors chars-per-pixel */
"64 64 129 2 ",
"   c #000006",
".  c #03040B",
"X  c #06090E",
"o  c #090A0F",
"O  c #050610",
"+  c #060912",
"@  c #0B0D14",
"#  c #0E0F19",
"$  c #0E1116",
"%  c #0E1119",
"&  c #101116",
"*  c #13151C",
"=  c #16181D",
"-  c #18191E",
";  c #151621",
":  c #161922",
">  c #1B1C23",
",  c #1D1E28",
"<  c #1E2126",
"1  c #1E212A",
"2  c #202126",
"3  c #22242C",
"4  c #26292E",
"5  c #28292E",
"6  c #252631",
"7  c #262932",
"8  c #2A2C33",
"9  c #2C2E38",
"0  c #2E3136",
"q  c #2E313A",
"w  c #303136",
"e  c #32353C",
"r  c #36393E",
"t  c #353741",
"y  c #363942",
"u  c #3A3C44",
"i  c #3D3E48",
"p  c #3E4146",
"a  c #3E414A",
"s  c #414247",
"d  c #42454C",
"f  c #46494E",
"g  c #494A4F",
"h  c #454751",
"j  c #464952",
"k  c #4A4D55",
"l  c #4C4F59",
"z  c #4E5156",
"x  c #4E515A",
"c  c #4E515A",
"v  c #505156",
"b  c #505358",
"n  c #53535B",
"m  c #515459",
"M  c #52555A",
"N  c #53565B",
"B  c #50535C",
"V  c #53535D",
"C  c #51545D",
"Z  c #53565F",
"A  c #54575C",
"S  c #54575E",
"D  c #51545D",
"F  c #55585D",
"G  c #56595E",
"H  c #56595E",
"J  c #58595E",
"K  c #545760",
"L  c #545661",
"P  c #555861",
"I  c #565960",
"U  c #565962",
"Y  c #575A63",
"T  c #565962",
"R  c #585B60",
"E  c #595C61",
"W  c #5B5E63",
"Q  c #595C65",
"!  c #5A5D66",
"~  c #5A5D64",
"^  c #5C5F68",
"/  c #5C5E68",
"(  c #5D6065",
")  c #5E6166",
"_  c #5E6166",
"`  c #5E616A",
"'  c #606368",
"]  c #616469",
"[  c #62656A",
"{  c #63666B",
"}  c #60636C",
"|  c #64676C",
" . c #62656B",
".. c #65686D",
"X. c #66696E",
"o. c #676A6F",
"O. c #66696E",
"+. c #696A6F",
"@. c #646770",
"#. c #666971",
"$. c #696C71",
"%. c #6A6D72",
"&. c #6E6F74",
"*. c #6A6C73",
"=. c #6E7177",
"-. c #6E717A",
";. c #707176",
":. c #72757A",
">. c #74777C",
",. c #71747A",
"<. c #76797F",
"1. c #757881",
"2. c #767981",
"3. c #7D8085",
"4. c #7E8186",
"5. c #7E8188",
"6. c #808388",
"7. c #818489",
"8. c #84878C",
"9. c #878A8F",
"0. c #888B90",
"q. c #8A8D92",
"w. c #92959A",
"e. c #9EA1A6",
"r. c #A2A5AA",
"t. c #A6A9AE",
"y. c #AFB2B7",
"u. c #B6B9BE",
"i. c #BABDC2",
/* pixels */
"&.8   - - @ 2 2 ; > ; * ; ; # ; 1 % : : : % 1 1 6 1 1 6 6 1 1 6 7 7 q 9 q q 7 9 7 1 : p t t t 9 t 7 p p r = 0 a r p p < 0 %.>.4.",
";.  2 s 6 5 * . e 6 , 3 9 6 6 e 7 7 % , a a 6 y t p p q 1 1 a l a a a a a a a a 6 1 Y a a a p a a B z 0 4 M ] a M p < f %.4.e.M ",
"+.$ = 2 > - o 5 8 3 , 3 9 6 , 6 : % % q t y 6 7 , 7 7 1 : : 6 a 1 7 6 1 7 7 7 9 % % a t t p 7 t 0 r 4 1 $ r r 0 0 < X p p X.u...",
"2 $   = ; . o 2 # # # # # ; ; @ % X : t % % : % % % % : % : : : 1 : % 1 7 1 1 9 : : 6 7 1 , t 7 p e p a r u r p p r 0 0 0 %.r.( ",
"w & - p 5 5 h 8 t 3 6 6 9 t i t p p q q a 7 q a a a t t a a a a p a l a B a B Y C @.B a q a ( ( a M ] M W | { p 0 R ) F z %.q.[ ",
"r X & o - s 9 w 3 # ; i t 6 9 t p q t : % % y a a a a a a a a a + a c a q a a a a x a 7 % ` a a b a F p z G M = 0 :.F ( F f 0.7.",
"w > > - s n 2 e 6 ; 9 V h t t i a a P a : 9 } x a c L L L B a a t c / l a B l a Z a B t p 1.( a R z b M F b a r :.4.s r z ( 7.X.",
"s w w v v h v s l h V V t h / l a Y a U a #.} C } U c c Z Q U a 1./ B Y @.} / @.@.! #.-.3.U @.x r a F o.b ) | | z R ..r r >.%.F ",
"w v w n w i n V V / V V V V / V C x k k x x x k Z P Z Z Z Z Z P a c c B C K Y Y Y Y Y U P C C C f f N A b b b G s R s 0 z M r ) ",
"s n s s ;.w i +.l / V V V V V V Z x x l l x x k P Z Z Z C C C Z C c C a l x C U K C C x C a a k f z b A A G G G p f M 0 =.p f G ",
"2 J g 2 &.V / V h / J V V l V V P Z x x x x l k Z C C x x C C x l l c c l C C Z Y U C C C x x a z z f b G R A b 0 0 f < 3.p G W ",
"5 w 2 g V n / / k / V V V h V V Z Z Z x x x x x x x x x x C C C B c B C C U ! ` @.! Y U ( Y Z k z f f z N G M b 0 0 < < ) f M ' ",
"w w 2 n V h V / h V h h V V V V C x C C x C C C x x x x x x Z Z B C Z Y Y } } @.` ! Y Y ` Y C l M z z M M A A A p p 4 r M b M W ",
"w J w w / V l V V / V l V V V V x x C x x x Z Z a C a x x C Z Z B C K Y ` } } @.} ` ! ! ` ` U C z z M M b b A W p f r 0 ) p W z ",
"s g 5 t -.h i / V @.V V V l V l x C C x x x C Z x x Z x x C C Z c C Y ` ` } ` ` } @.@.@.@.` ` Y M M M M b M R W r p p 4 ) p ' f ",
"w n t w i V V 9 i V l V V h V V x C Z x l l x x C C x C x x x x C K ! ` } ` ! ! ` ` @.@.` ` ! ! W R G G R W W ] r f r 0 f r W r ",
"5 n w 5 n g s ] h h l l l h l L l L l L l l l l x x x C C C C Z z A ( _ [ [ [ [ | [ ` _ [ _ E Z W G A R ( ) ) ' r p p < z f M b ",
"w s 2 w n n v J l h l l l l l l l l l l l l l l x C x a x C C C x A G _ [ [ [ ` [ _ _ _ [ [ ` _ W R R R ) ) ' ) p p r 4 G r R ) ",
"w v r 5 s / ;./ h h l l h l l l l L l l l l l l a C x C l C C x x A G _ ` [ ` ` _ _ ( ( _ [ [ [ R R W ( ' | | ' r G 0 $ f z >.z ",
"w r 5 5 w > h 2.1.l h h l l L l l l l l l l l l x l l a a C x x z A G ( _ _ ( ( _ _ ( ( _ _ ( ( R W ( ) ....o.o.0 p 0 < r X r >.",
"w g r 3 i # 5 <.h h h l l L L l l l l l l l l L x l a l a l l B A A G E ( ` ( ( ( ( ` ` ` ` ` ` ( ) ' | | | ....M 0 r < f 4 4 W ",
"2 W g - n g n  .1.L l l L L l l l l j j l l L l B x C B C l B B x Z P E Y ( Y ( E ( ` | @.@.@.@.| ..o.| | ) ) ' 4 p ' < s M f W ",
"5 3 * - { h k  .1.h 1.l L L L l l l l l l B L L C C B x C C B B x A Z E Y Y Y Y ` ` @.#.@.@.#.#.o.o.o.| ) ) ) ' 0 $ = X G G p G ",
"w * # & n h ~ V L l h l h 1.L L l l l l l l B L K C C B B C B K A Z Z E E E E E ` | | | } } @.@.| | ..| ' ' ..o.r 0 = X f f G ' ",
"3 d 2 3 g d x _ Q Y Y U L L / L L l l l B B B U U L L L K C K K P Z P Y ` ` ` Y / / } } 1./ } / ....{ { ..X.$.%.0 r 0 = M p f { ",
"2 s 2 e x y f #.Y Y U U L L L L l l l l B B L Y U U L L K K K K P P U Y ` @.@.` / } } } } / } Q W ( R W ( ) ' [ 0 p r = z p f b ",
"5 g 3 5 k d x Y P P U P L L L L l j j l c B L Y U U U K K K P P Y Y E Y ` @.@.@.} } / / / } / Q E R R ( ( ) ' { r p r = z p f R ",
"0 g 5 - d p z S Z Z Z Z L L L L l l j l B L L Y U U U P K K P K Y Y P Y ` ` @.@.} / / / / / / / E ( ( ' ' { ....0 r r = f r p ] ",
"0 u 3 < j 0 d ` x Z C C C L B L L c l l B L L L Y U K K K K K K Q / L L ` } / / / / L Q Y ! ` ( E E E ) ' ' ....r p 0 $ f r p m ",
"4 d 4 $ z z ( z x x x c B B B B L L c l c L Y L U U K K K K K K L L L Q ! ! / Q / L L L Y ! ! ! R E E ) ' ' ' ' 0 f 0 X f z G b ",
"4 g 5 o j j [ z x c c c B B B B l c c l c Y Y L U K K C C K C C L c L L / / Y L T L L L P P I P R E ) ) ' ) ' ' 0 p 0 $ p p z ] ",
"0 w 4 < p   y 5.z z z c l B c B l l c l l Y Q L L K K B B C B K l l C L / / Q L L L C L L L A b G G R E ( W R W 0 r 0 < 0 X < X.",
"8 k q % a 7 q j L l l l l l l l a Z C Z B Q Q B Q Q I C C x C C l l c L L Q L L P B B B P Z Z c P U Y Y Y Y ! ! p a a : p q a y ",
"> p e < a t a Q l l h l l l h l x a B C B Z U Z P I P x x l l x c c c L Q L Q L P Z B B B x B B B P Z Z Z Z Y Y 7 q a : y q a x ",
"= 4 : % a a L B L l l l l l l l a Z a Z B C Q Z Z C B x a C C x L L L L Y L L L U Z B x c x c a Z Z U Z Z Z Z Y 7 1 , + a a Z Z ",
"< < % @ a a L l L L l l l l l L B C B B a B B B Z Z B x x x a x c c c L L L L L B Z a x a B x B Z U Y Y P Z Z Z q 7 : + a a x l ",
"< 0 4 = t t L Q / L l L c L L L C P B a Z B C B Q Z B B C C l a l l l B L L L L c a B a a x c Z Z Z U U Z Z Z Z 7 t y % t y x C ",
"4 r 4 = y y C L L L l l L L l L B a x P a B Z Q P Z C C Z P C l a B a l L L L L B B Z c Z x a x c x Z Z Z x x Z 7 y t + q a x l ",
"4 e = $ h h l l L l l L L c B B Q a a Q Z B B Z I Z B B P P P Z Z c l l c L L L B Z P B x a a Z a x Z Z x x x x q q 7 + a a l a ",
"< p < $ h i h L L l l L L l L L Q C C P Q a B Z B Z a l Z P C a B B l c B B L L x B Z Z Z Z x x Z x Z Z Z Z Z Z q 9 q : a a a x ",
"= e 0 $ p p b z c c c c B L L L C C Z Z C B a P l l l B C C C B c B Z B a Z B B c x Z Z B x x x c C C C C x C P 9 9 9 . q j c a ",
"< e 3 X p a ] R l c c c l B c L B B C C C B C C B l x B C C C x c B Z B c c B B c x Z Z Z B B B x C C c C C C C q 1 a 1 9 7 C #.",
"= 0 0 = 4 X r =.c c c c B c B c C B B Z C P B B x l l C C P C B c B B B x c c c a c Z Z Z x B B P x l l c C C c 1 7 q + q % : C ",
"4 4 4 < r X < k c c c c L L L L B B a P B a B B x x l C Z C C C c c B B Z Z a c Z c Z B B x B Z C C l z c x x c 1 a a + y 1 * a ",
"$ e e = p 4 a f l c c L L C L L P Y P a a x B C x x l C C Z x x B c c c c c c c Z Z B Z x c x x C C C C z c C C 7 : a 9 7 7 a j ",
"X < 8 $ r 1 j ( j l l c l c c Z x a C C P C P a C C a Z x C x x B c c c c c c c x Z Z Z x c x x C P ! Y L C P ! 9 . : * q 7 a l ",
"< & . X j 0 p a j j l l l l c a a C a P a x C B x a C a x x x x B c l c c x c B c B Z B x B Z P C P ! ! ` ! ! ! q , @ . a y t k ",
"= 4 > @ p q a j j l l l B c B C P a x C U C P a x a l l x x x x B c a Z c c c a a Z c x B Z P Y ! P Y ( @.` ` ! 1 3 7 . t t a a ",
"< 4 2 o s 5 e J k k g V V V V l k a l a C C l a C a x l x x x a L l l l l l l l L B l l c C L U Y ( ( _ [ [ X.o.0 < 0   0 d r d ",
"$ 0 5 . u i k k v k l l l l l h c l C x C Z C C C l l x x x x l l l l l l c l l B L l l L L Y U Y Q _ _ _ _ [ X.7 > 0 $ r 0 r z ",
"& 2 0 & e 5 u g l k k k l V h h l l k c C Z Z C C C x C C Z C x l l c L L L L C l l l L L L ( ( Y ( ( _ ( _ [ [ 4 < 4 = 0 < r p ",
"< - 5 = r 5 u h g k k V V V V V k k k l C Z K Z K Z Z C C C C x 1.l L L L L T L B B L L L L P U S G ( Y ( ( _ _ 4 < 1 $ 8 8 g 0 ",
"< 2 4 X w g J s h h h V l V V h c k c Z L U Y L K K Z C x x x C i l l 1.T T T L B l L l x x C x H H G G G G E ( 4 < 4 $ 0 0 M p ",
"& 2 5 X 5 2 u k V l h h h l l h k c k c Z L U L K Z C C l l x x h l h h L L L L L B B B x x x x S S F F A F G E 4 = 4 = 4 $ w f ",
"= 2 5 & 5   - n l h l l V l l h k k j c x Z Z Z K K Z x a a C x l l L L L L L B L L B l x x C C H G G F A A G ( 4 = 4 o < X & u ",
"2 w 4 X r 2 w g l V h V V V V V x c c Z L U Y Y K K Z x x l x C l l h 1./ L L L L L B l x C S S Y G G G A F G ( 4 < r . 8 0 < u ",
"- - 2 - 2 w 5 w i 9 5 t i t 9 i q t y y y q 7 a p t 9 t y y t p 9 9 i a a t t t 4 z r e e p r p p r r p s r p r r X u 0 4 r f f ",
"& o - 2 2 > o & # 6 6 ; ; 6 , ; , : % + 1 t 7 : 7 q t 9 1 : 1 y i t t t t t 7 t p . < p p p a p r g f p 4 0 M b p M 0 0 f ] t.W ",
"2   & w 9 2 > 5 t t 5 , , 6 9 t 7 , : q a y t y 7 t a q 1 , 9 a t i i i a a y a r @ R M r p a a p b f 0 4 r F f f f o g X.F y.z ",
"5   & 2 # & & & , ; ; ; > # ; ; @ . + 7 7 % % 1 % % % % % % 1 1 % % % % % : : :   . 4 $ < 4 < * 2 4 < < < 4 0 4 < $ X = < F i.] ",
"-   - 5 ; > , ; 6 ; , 6 6 9 9 , 1 7 1 9 6 , 9 , t 9 7 6 1 7 9 7 p p r 0 p a k p p p p f r s g z f M W ..R F X.R ] z F ) F m w.w.",
"& o - 2 2 i s i t ; ; 9 9 6 i i t y t y , % t t a a a a p p a p $ 0 p p q y p p z M b f . 4 F p p M z f f M A 0 . X.( r g A 3.] ",
"2 & & & > w 5 5 8 & , V h 9 9 t a t y a , + a Z a a a Z k x z a $ r W A p p a b M f f 0 2 ' :.p R R f z F ) F 0 z 9.X.z ( M 9.:.",
"2 - 2 5 g V i w e 9 h h i i h i a a a a q p #.B c B a a x U a r M ( R f a N G z M z ' p W ' f E f f p W W z M g ] g F p r M 4.r "
};
