/* XPM */
static char *Y2FtZXJhX2xlbnNfY2FzaW5n[] = {
/* columns rows colors chars-per-pixel */
"64 64 162 2 ",
"   c #020102",
".  c #090602",
"X  c #0A0906",
"o  c #060609",
"O  c #09070A",
"+  c #07080A",
"@  c #0B0B0C",
"#  c #110D0A",
"$  c #12100D",
"%  c #18130F",
"&  c #0E0E11",
"*  c #120F12",
"=  c #131313",
"-  c #181512",
";  c #1A1915",
":  c #161619",
">  c #17181A",
",  c #1B1B1C",
"<  c #211E1C",
"1  c #1E1E21",
"2  c #201F24",
"3  c #232324",
"4  c #282627",
"5  c #292826",
"6  c #262629",
"7  c #28272B",
"8  c #27282A",
"9  c #2B2B2C",
"0  c #302F2D",
"q  c #34332F",
"w  c #2E2E31",
"e  c #343434",
"r  c #3A3937",
"t  c #363638",
"y  c #39373A",
"u  c #3C3B3C",
"i  c #42413E",
"p  c #3E3E41",
"a  c #423F44",
"s  c #434344",
"d  c #484745",
"f  c #484846",
"g  c #464549",
"h  c #4A464B",
"j  c #4B4B4C",
"k  c #53544F",
"l  c #4E4D51",
"z  c #504F55",
"x  c #4D5152",
"c  c #545455",
"v  c #5A5A56",
"b  c #56555A",
"n  c #58575C",
"m  c #57585A",
"M  c #5C5B5C",
"N  c #615F5E",
"B  c #62625D",
"V  c #5E5E61",
"C  c #605F63",
"Z  c #615F6A",
"A  c #646464",
"S  c #686764",
"D  c #6A6966",
"F  c #666669",
"G  c #69676B",
"H  c #67686A",
"J  c #6B6B6C",
"K  c #706F6D",
"L  c #72726E",
"P  c #78736F",
"I  c #696772",
"U  c #6E6E71",
"Y  c #6F6D78",
"T  c #716F73",
"R  c #706E79",
"E  c #6F7173",
"W  c #737374",
"Q  c #787676",
"!  c #797976",
"~  c #767579",
"^  c #78777B",
"/  c #76797B",
"(  c #7B7B7C",
")  c #807F7D",
"_  c #81807E",
"`  c #7D7D81",
"'  c #7F7D88",
"]  c #817F82",
"[  c #817F80",
"{  c #807F85",
"}  c #807F84",
"|  c #7F8082",
" . c #7F8084",
".. c #7F8384",
"X. c #7E8083",
"o. c #7E8489",
"O. c #828081",
"+. c #838280",
"@. c #808183",
"#. c #818284",
"$. c #828385",
"%. c #828186",
"&. c #838287",
"*. c #848285",
"=. c #838486",
"-. c #848587",
";. c #878586",
":. c #828384",
">. c #8B8986",
",. c #858388",
"<. c #838488",
"1. c #858489",
"2. c #878588",
"3. c #858688",
"4. c #868789",
"5. c #86858B",
"6. c #85868A",
"7. c #85858A",
"8. c #88878C",
"9. c #88868B",
"0. c #87888A",
"q. c #86898C",
"w. c #898989",
"e. c #8A8889",
"r. c #88898B",
"t. c #89888D",
"y. c #898A8C",
"u. c #8B8B8D",
"i. c #89888E",
"p. c #8B8C8E",
"a. c gray56",
"s. c #8A8B8C",
"d. c #908B87",
"f. c #838C93",
"g. c #8D8E90",
"h. c #8D8D92",
"j. c #918F92",
"k. c #8D9194",
"l. c #8C939B",
"z. c #919193",
"x. c #929292",
"c. c #929095",
"v. c #919294",
"b. c #939297",
"n. c #949295",
"m. c #959396",
"M. c gray59",
"N. c #929294",
"B. c #959499",
"V. c gray60",
"C. c #999A9C",
"Z. c gray61",
"A. c gray62",
"S. c #9B9B9B",
"D. c #9B9AA0",
"F. c #A09EA1",
"G. c #9FA0A2",
"H. c #A0A1A3",
"J. c #A3A3A5",
"K. c #A8A3A7",
"L. c #ABACAE",
"P. c #ACAAAD",
/* pixels */
"P B B K B v B B f B Q ( *.n.,.M f f &     = m x.~ 5.( W { i.{ { ` { ..$.p.h.! m p &     , m F ~ E E / E W E / / H H H H H o./ x ",
"B B B B B S K B M B Q ( ~ *.c.j.M f s @   @ = n y.U ( 8.R ` i.` ` ] ` ` $.p.0.X.J y + &   = ~ ~ ~ / W E E ` / E E E E E H E / / ",
"i B P B B S S D B B K O.` ! 2.n.x.c j x @   @ @ c ( ,.~ ` { i.{ ` ` ( ( | 0.k.C.H ~ s     + 1 V ..E E / / W W ! E E E E H V H o.",
"; f B D D B B K S v H _ ] ! ~ ~ w.Z.v s f @     = V %.` 5.{ ` { ^ ( ` %.O.| 0.c.3.E E y &     1 A E / / U U / ( / E F A E V x H ",
". ; u v P D B D T G K ! Q ~ [ ! Q Z.a.s j x o   o = z b.i.` ` ~ | | ..0.3.| ` | Z.p.A E g     o > m ( U A ~ | W / X.J A E H m M ",
"    # u D P D S S K ! ( Q ] e.2.( W V.M.v f p &     1 V ' 5.` ~ 6.0.$.$.| ..| | $.G...J E s &     1 x ~ ( E W | W ..( H A H H H ",
"$     ; i D L D B S Q +.) ) [ ! L w.Q Z.V.j s g + :   & b %.' ` 3.q.0.| ( | $.$.| W L.q.A ( j + +   > B | E H ` H ~ / W H H E H ",
"; .     ; j L L ) D D ) ) ) Q K W / | ! w.4.b c g =     1 b ` { ` y.h.| ( | $.| $.h.p.D.k.J A j +     , m | ! n J S ! ..E E E m ",
"N <   .   @ i L S G D S K ! P S H ( ( L ( a.( M z p & o o + z h.E p.| E _ h.0...$.p.y.| 0.k.( V s &     6 M M M A E ` ~ J A F J ",
"S B 9     o $ r K S S Q W B N B B H W W _ >.0.| V a p o o * 1 z c.U ( k.| ( 0.( 0.p.$.( ` h.q.( J y O :   O F T E / W J A J U J ",
"S D n 4     X X d v K P S B B B B A J / Q W ( p.' g l l o o 1 o V ! 0.$.$.5.0.$.$.$.| ^ ! ..p.k.J W g O     : S / W H n C T ~ T ",
"A M D N ,   .   X r B D B B B B D D W ! E S E O.5.h.l g l + o o & H p.( -.k.0.$.| ( X.| ` ( +.p.y.T J y * o   2 c M A v C T ~ T ",
"G Q J G N 4       # q v D B v B J Q ( ( W W W ^ ` g.%.g h h + o   : m h.q.%.0.` $.( ` _ X.( ( %.F.n.G G h . .   < y N G D K Q ~ ",
"] ~ T T / A 9       # q B L B N J / ( L L ~ W J ` J b.5.g l h &     : V 3.0...$.6.| / ( ` X...$.] P.u.G Z y O     < a Z T T T ! ",
"{ Q ( ] Q O.K 0 . .   . 0 B P B H L W K J E E J W -.Y h.i.z z a & &   & M ....0.` ` ( ( ( | ..| ( K K.;.N T a . .   < a G T Q ) ",
"Q t.] ^ +.+.Q L 3 $   . # 5 k _ S A S J W W ( O.( I W W { ' z z a >     , M %.` E ( ..| ` ..( ! [ T G n.m.G b h *   . 0 C T T Q ",
"^ Q / ( ! ! ( $./ 5       X r B c L S B / ) E / ~ W I I %.B.` z k s > o   @ M p.D x.3.D +.4.W / ( U ~ T x.x.v A a @ X   % D d.) ",
"~ T Q Q Q W / ( ( E q       @ 9 M D S U ..) K ..T ^ ` ~ ~ 5.i.{ j c s   . = X M M./ _ w.( D L W ^ Y ~ E $...v J L r   # . % P d.",
"! Q T W W W L W ( ( A 9     o   r S ~ K ! ( W E Y ( %.~ R ~ 5.B.w.g f c @   & X A +.4.Q W W K / ` E ` W ../ B _ W Q r . .   # P ",
"( Q W W Q W L W Q D / A 1   .   . f D S J W K H ~ ` ` ( ~ R ~ ` x.-.f x f @     & S ..K W ) Q ( ` E ` ` ` ~ H x.M.D ( f . . . < ",
"/ W K W / W W W E ( W K V 5       @ e A ~ S A E %.( ` ] ' ` W W U V._ t v v   @   & c -.( / _ / ` I / / E E W w.A.a.W ( u   #   ",
"L J J L L W L W ( ! E K W B 9       @ u A U J U ( ( ` %.~ ~ ` ` W W M.( j c f @     = B | +.+._ o./ E W / / / .._ K._ D ) d .   ",
"J D J E K J K W ( S E W D / H 6 @ o   @ w M E A E ( %.] ` R ~ ~ E ( W M.+.x v u = X   = c +.;.-.X./ / X./ ` 6..._ E G.w.W ( s @ ",
"J K J E K D J W A ! K S / ! S S , @     @ 9 m J Q | 5.5.{ ` W F / Q Q Q M.( p v s @     > M a.( E / X...X.o.k.0.p.( %.J.p.K Q s ",
"H ! J H / A v ( D J K K K S S H F 1   +   o w b J ` | ( $.! F J S ( _ W Q >.Q j j f =   . @ f ( J +./ _ o.) k.v.q.q.0.y.k.k.` S ",
"1 S ( S E ! J H E J K W Q L U U J V 7   o   + w b 5.g.U S E E U W ! / W W ( +.$.x f s @   = @ s ~ q._ ..w.q.y.( 6.q.f.p.k.k.o.X.",
"X 1 V ( S H ( E E U K ~ ( ( L U R I V 7 o     o w J O.J A L ( _ O./ J S H K +.k.-.f s f o   @ + j p.q.` k.w.( o.o.q.f.f.q.k.k.l.",
"    3 H ( S S ( K D D W / / W W ~ F Y V 2   o   @ 9 v / _ / / +.( / S v A ! ( / 4.w.s u f @   . > m q.g._ ~ o.k.q.q.f.3.o.o.f.f.",
"  X   3 W _ A J K J D E W L W / ~ ` U G V 7   o   o 9 J >._ E D D H V B D ( _ W L x.O.u x v .     @ S M.W / k.( o.o.o.o.o.o.o.f.",
"u &     9 S _ J K U K E K E ~ _ ` ~ G G I V 7       @ t B ( / B A M A J J H J ( Q / V.| s c c @     1 x f.Z...( o.X.o.o.o.f.f.f.",
"-.e &     3 S W W U K E ~ W Q ) ` I I Y F T A 7 @     @ 4 M L B V A H K K A S A c ( W w.-.j x l = X   @ H l./ o.o.X.o.o.o.l.l.l.",
"( a.i   X   > K W J D E / Q W W R { ~ G Y I A F 3 @     . r M v m S E D W _ K j q f W ;.x.( f c x     + & V k.E o.o.o.l.o.o.o.l.",
"A g.%.u @   o , U ) T J ` W A ( ( ~ Y U U J J W F 1       o t A S H K J A W ( A r w n 2.,.h.' h v i $ o   = A p.E %.h.5.5.h.h.5.",
"J A %.y.r     @ : H -.H F W U W U J J U W U J U A V 8       o w J H J H H W ! W G c A ~ W 5.b.` s c f .   @ @ A J.W { D.` ~ h.l.",
"W A J y.5.s o   o 3 A ( F J ( U H H J Q ~ W J U F J v w         r B D B H _ $.` %.W Y ~ ^ 8.b.i._ d c M @   = & F ,.h.8.i.{ { D.",
"J ~ A A n.k.a   @   3 H ` U J ~ U J W ~ ( W W U U V J V 1   o o   t c V W ( ^ ( ( ( ~ ^ ` ` ` ` k._ f c f &     + I h.` c.B.5.B.",
"J J U F F p.-.s   @   9 E ~ M W Q W W ~ ~ W U E U Q F A n 3   +   @ 3 c _ / H ( ( ] ~ T ^ R R ^ / M.( e c v       1 z { i.{ c.B.",
"J V A J H U ) y.p @     9 A ( W ~ W U W W J U W W U A H U c 3       . 3 M 4.-.W ~ ( ^ ^ ] ` ~ ~ L J N.( s j j &     : V h.h.i.c.",
"J J b A ( H A g.k.y @     8 I ^ ^ W W W U U U W W A J J A J V 3   X     3 L a.( ~ ( } { { } ~ T J Q ~ C.( j n p & +   > Z h.{ 5.",
"U F U J n F T H O.h.g   +   , ` ( Q W W W U W ~ J ( J n A F V J 3     @ @ 8 D c.8.{ ` ` ~ ^ ` R ( W ! ` N...j m h &     : Z B.{ ",
"W W W J F A F U A g.%.u @   @ 3 U ` W K ! U F ` J J U E J J H J A ,       . e A q.` ( ` ` ` ` ~ ` ~ T W w.B.! f c c @     @ F g.",
"! ~ W J F A J U W A 5.w.u     & 3 F %.J U ( W A E J J U W W U J A B 5       + w W ( ` ^ ^ ` ` R I ` ~ Y E %.h.p.x V x + o = o F ",
"^ ~ W J J J J W W F U h.%.s     + 3 F 5.H U ` H E J U E ~ ~ J A J J m 8         w A { ~ R 5.i.` W ` W I J ~ p.D.B.s M V X   @ = ",
"E E J U U W W U U ( A A g.g.s   o   8 W ` J J Q U W ~ ! W J F A J M J S 3   o     y I ` ` ,.{ ' ~ ` ` W G G ~ h.K.~ j M s @     ",
"F H U E ~ ~ Q E U U W F A w.-.s       6 W ` F J W ^ ^ E A M V F J W J J D 9         w Y i.` ~ { R ` ' R V z I h.+.V.W u j s .   ",
"A H E Q ~ ~ W W W J J J G J ( -.p o     9 A $.E ! ~ U V c b A W / L H J Q B 8   o     w V ' 5.` ` ` ` { W Z A G ~ ( x.0.u r j @ ",
"H T ~ ~ ~ W W ~ ( W V F ` J V -.h.e & @   3 J ( E F m c v F E W ! A D Q J ^ H 6 o @     6 I h.%.5.' ` 5.h.` A x S ( ! V.Q i k u ",
"U Q ^ ! W E Q ~ ( J U W A J W V | 5.u   o   > W A c f c I ( ( J A ! W J ( ! H H 1 &     & 7 C B.{ ` ` } ` ~ U J A H ~ K x.4.r v ",
", B _ W W ( / K / W P W W D H H V ( ( s     @ > j M x v ( 4.W L H H E E ~ ~ ~ E U 2   o   + e m { h.] ~ ) Q K / D x V ^ ~ h.%.p ",
"& , m _ J S ( W W L W W K S A S A v Q | r     & $ j D A / $.W S J J E E E W E E E H 9   o   + w V 2.x.( ! ! E L E c Z ~ R ..f.` ",
"    1 v Q J H ( K W ! / K A A A A B M ! +.p     o : B -.J D ( W E E E E E E E E ! ^ A w     o + 6 V O.O._ ) ! ( ) D E ~ Y I ' i.",
"o o   , B / J W / Q ( ( W H A S A W v j 4.+.t X     e J Q K ! ( E E J H H J U E W H ~ H 6       + 6 v ( _ ( ! _ ( ) _ ! Y Z Y ' ",
"i &     , v O.Q / E E W / L J J A M H M x ( | y   X   , J -.W W E J H F H H J E J E U E U w       o w V ~ ( ( ! W ] ( T R R R R ",
"D u =     3 v _ D A S K / W W K H c A T v A _ Q s @     9 A O.W J J H F F H J J J H F E X.H 9       & w v ! >.( ! O.^ K ~ ` ~ Y ",
"/ K u = X   > B B V S E ! W D D J J M A ! H V ] p.e @ @   3 H ~ E U J J H H H H E M U ~ E ( F 3 &     & 3 c ( _ ( ( ~ ~ R ` R Y ",
";.W D s +   @ : B A U ~ ! K A V J W W F J U F A Q y.s     @ 1 A E E E U J H F A A X.( E ( E A F 7     + o , c _ W L ~ { ` ~ ~ ~ ",
"A.) W U u =     @ H +.S D D V H R ~ ~ J A A F F n g.%.u o   + 1 J / E J W H V W Q / / / E E E ~ I w     @ + 5 v _ ( ) ( ( ~ E E ",
"W M.w.W J u X   @ 1 c K m c J W Q Q W G G J J J J F h.h.p     O 1 H | H H ^ E H / / W W E W E E Y I 7   @     9 B ( w./ D W W I ",
"W 0.Z.a./ B t $     > s M v A / ( ~ I Z U ~ T I ~ F I h.{ p o   @ 2 A | F E q.! / W E E W W E E Y W b 6       X 5 c Q L H J ~ W ",
"_ / a.Z.+.W A u o     > j H H S ( T T I ~ ` ^ T U Y b V i.,.p O +   8 E ( E ! ../ E E E E K E E Y V I V 6     . # 5 f D U J Y ~ ",
"L ;.( _ Z.w.S V u o   X = c _ A R ~ Q ` ` ` ^ W F F G F A ` ` g       2 E q.U E W W ~ E U J E R Y Y F F V 6       X 5 j J W J J ",
"/ _ ! D ( a.0.Q B e =     , v _ T ^ ` ` ` ` ^ R J G Y ~ R H W ` p @   o 9 J q.E E ~ ~ W U J J R Y I V F G x 6       $ 3 c W ( J ",
"_ L / J M _ Z.O.B F u & X   > F R ` ` ' ` ~ ~ T R ` I U ` I V ` q.t = +   8 E ! E ~ ~ / E E I U ` z I I b H V 1       X 8 v W W ",
"D / E Q _ W W w.M H A s @   @ , ' ` ` ` ` ` R U ` ~ ` G z V I V ` h.s     o 2 E / E E E ~ ~ Y Z V I I F V B V v < X     $ 3 j W "
};
