/* XPM */
static char *TWljcm9zY2hlbWU_[] = {
/* columns rows colors chars-per-pixel */
"64 64 256 2 ",
"   c black",
".  c #010101",
"X  c #020202",
"o  c gray1",
"O  c #040404",
"+  c gray2",
"@  c #060606",
"#  c #070707",
"$  c gray3",
"%  c #090909",
"&  c gray4",
"*  c #0B0B0B",
"=  c #0C0C0C",
"-  c gray5",
";  c #0E0E0E",
":  c gray6",
">  c #101010",
",  c #111111",
"<  c gray7",
"1  c #131313",
"2  c gray8",
"3  c #151515",
"4  c #161616",
"5  c gray9",
"6  c #181818",
"7  c #191919",
"8  c gray10",
"9  c #1B1B1B",
"0  c gray11",
"q  c #1D1D1D",
"w  c #1E1E1E",
"e  c gray12",
"r  c #202020",
"t  c gray13",
"y  c #222222",
"u  c #232323",
"i  c gray14",
"p  c #252525",
"a  c gray15",
"s  c #272727",
"d  c #282828",
"f  c gray16",
"g  c #2A2A2A",
"h  c gray17",
"j  c #2C2C2C",
"k  c #2D2D2D",
"l  c gray18",
"z  c #2F2F2F",
"x  c gray19",
"c  c #313131",
"v  c #323232",
"b  c gray20",
"n  c #343434",
"m  c #353535",
"M  c gray21",
"N  c #373737",
"B  c gray22",
"V  c #393939",
"C  c #3A3A3A",
"Z  c gray23",
"A  c #3C3C3C",
"S  c gray24",
"D  c #3E3E3E",
"F  c #3F3F3F",
"G  c gray25",
"H  c #414141",
"J  c gray26",
"K  c #434343",
"L  c #444444",
"P  c gray27",
"I  c #464646",
"U  c gray28",
"Y  c #484848",
"T  c #494949",
"R  c gray29",
"E  c #4B4B4B",
"W  c #4C4C4C",
"Q  c gray30",
"!  c #4E4E4E",
"~  c gray31",
"^  c #505050",
"/  c #515151",
"(  c gray32",
")  c #535353",
"_  c gray33",
"`  c #555555",
"'  c #565656",
"]  c gray34",
"[  c #585858",
"{  c gray35",
"}  c #5A5A5A",
"|  c #5B5B5B",
" . c gray36",
".. c #5D5D5D",
"X. c gray37",
"o. c #5F5F5F",
"O. c #606060",
"+. c gray38",
"@. c #626262",
"#. c gray39",
"$. c #646464",
"%. c #656565",
"&. c gray40",
"*. c #676767",
"=. c #686868",
"-. c DimGray",
";. c #6A6A6A",
":. c gray42",
">. c #6C6C6C",
",. c #6D6D6D",
"<. c gray43",
"1. c #6F6F6F",
"2. c gray44",
"3. c #717171",
"4. c #727272",
"5. c gray45",
"6. c #747474",
"7. c gray46",
"8. c #767676",
"9. c #777777",
"0. c gray47",
"q. c #797979",
"w. c gray48",
"e. c #7B7B7B",
"r. c #7C7C7C",
"t. c gray49",
"y. c #7E7E7E",
"u. c gray50",
"i. c #808080",
"p. c #818181",
"a. c gray51",
"s. c #838383",
"d. c #848484",
"f. c gray52",
"g. c #868686",
"h. c gray53",
"j. c #888888",
"k. c #898989",
"l. c gray54",
"z. c #8B8B8B",
"x. c gray55",
"c. c #8D8D8D",
"v. c #8E8E8E",
"b. c gray56",
"n. c #909090",
"m. c gray57",
"M. c #929292",
"N. c #939393",
"B. c gray58",
"V. c #959595",
"C. c gray59",
"Z. c #979797",
"A. c #989898",
"S. c gray60",
"D. c #9A9A9A",
"F. c #9B9B9B",
"G. c gray61",
"H. c #9D9D9D",
"J. c gray62",
"K. c #9F9F9F",
"L. c #A0A0A0",
"P. c gray63",
"I. c #A2A2A2",
"U. c gray64",
"Y. c #A4A4A4",
"T. c #A5A5A5",
"R. c gray65",
"E. c #A7A7A7",
"W. c gray66",
"Q. c #A9A9A9",
"!. c #AAAAAA",
"~. c gray67",
"^. c #ACACAC",
"/. c gray68",
"(. c #AEAEAE",
"). c #AFAFAF",
"_. c gray69",
"`. c #B1B1B1",
"'. c #B2B2B2",
"]. c gray70",
"[. c #B4B4B4",
"{. c gray71",
"}. c #B6B6B6",
"|. c #B7B7B7",
" X c gray72",
".X c #B9B9B9",
"XX c gray73",
"oX c #BBBBBB",
"OX c #BCBCBC",
"+X c gray74",
"@X c gray",
"#X c gray75",
"$X c #C0C0C0",
"%X c #C1C1C1",
"&X c gray76",
"*X c #C3C3C3",
"=X c gray77",
"-X c #C5C5C5",
";X c #C6C6C6",
":X c gray78",
">X c #C8C8C8",
",X c gray79",
"<X c #CACACA",
"1X c #CBCBCB",
"2X c gray80",
"3X c #CDCDCD",
"4X c #CECECE",
"5X c gray81",
"6X c #D0D0D0",
"7X c gray82",
"8X c #D2D2D2",
"9X c LightGray",
"0X c gray83",
"qX c #D5D5D5",
"wX c gray84",
"eX c #D7D7D7",
"rX c #D8D8D8",
"tX c gray85",
"yX c #DADADA",
"uX c gray86",
"iX c gainsboro",
"pX c #DDDDDD",
"aX c gray87",
"sX c #DFDFDF",
"dX c gray88",
"fX c #E1E1E1",
"gX c #E2E2E2",
"hX c gray89",
"jX c #E4E4E4",
"kX c gray90",
"lX c #E6E6E6",
"zX c #E7E7E7",
"xX c gray91",
"cX c #E9E9E9",
"vX c #EAEAEA",
"bX c gray92",
"nX c #ECECEC",
"mX c gray93",
"MX c #EEEEEE",
"NX c #EFEFEF",
"BX c gray94",
"VX c #F1F1F1",
"CX c gray95",
"ZX c #F3F3F3",
"AX c #F4F4F4",
"SX c gray96",
"DX c #F6F6F6",
"FX c gray97",
"GX c #F8F8F8",
"HX c #F9F9F9",
"JX c gray98",
"KX c #FBFBFB",
"LX c gray99",
"PX c #FDFDFD",
"IX c #FEFEFE",
"UX c white",
/* pixels */
"+ + + O + O o p n 0 S # O + O + O + O $ - @ O + + O + o V i O O + O + + O O > G < O $ 1 # + + @ 3 , O N u j z o + + O + O + O @ ",
"+ O + O + O o i n 0 A # O + O + O + O a B 7 o O + O + o V i O O + O O O = y D ! > + i M 0 o O < n x % M u j l o + O O + O O O @ ",
"O O O O + o o i n 0 S # O + O + O + O v Z 7 O + + O + o V u O O O O - y n l u Y < O g Z 4 O O ; H s @ N u j z o + + O + # < # + ",
"f f f f g k i V l q A # O + O + O + X r I % O O + O + o V u o O - u n k 9 y S W : X 5 K $ o o O L y X M y h l o O O O O r Z M d ",
"f d d s s U G s 3 0 A # O + O + O + o q P $ O O O O + o V i - i m j 0 y n z e ( p 0 h K w q q 9 P k 0 G k N g O + + O O q N l d ",
"o o - w * p b @ r v N # O O O + O O X t L 2 < < 1 < 1 < G m b j 9 y b z 5 # @ m n v m M c v S _ M v v N b n 9 O + O O O + % o O ",
"+ O f H G E z : R k w @ O + O + + > i V H C C C C C C Z K z 0 y n z 6 $ o + O + O + O + + O ; I > o + O + o + + + + O + O + O @ ",
"O o 6 h 5 n m - ~ z * O O o @ 1 f m g 8 2 1 2 3 2 1 3 3 3 y n z 5 @ O + + + + + O + + + + + - J > O + O % < # o O O O O o O O + ",
"g g g g d S m # 2 A I 7 $ 6 k n a 9 y v P I m V T K M C V l 5 @ O O : c z b v v v v v v v v Z E z v v b b Z M h j z s g j j j j ",
"s s s s s z U Z < o A S k b y 7 a n k 4 q U : % a Y ; & * @ O O + o 3 R i i i i i i i i i i x ` a i p i c V c h h P R g j j j k ",
"O o O o O X * F m X v U w 9 g m f 1 + o 2 H & X q K % o + O + O + o 3 G $ o X O X o X o o X = K : X O X @ & + o X w S @ o O o + ",
"O O O O O o X s N X c A g m p > O O O O 3 H & o s Y 5 o + O + O + o 3 G % O O $ $ $ $ $ $ $ > G : o + O + O + O o w S @ o O O + ",
", > , > , > > k c X b U e - O O O + O O 2 H & O h S e o + O + O + o 3 G % O # M b N N N N M J ^ 7 O + O + O + O o e H < > , ; > ",
"V B V B V B V ( v X z v o O O + O + O O 2 H & O - 6 % O + O + O + o 3 G % O $ I r 4 4 4 4 4 t o.Y 0 + O + O + O o 0 R V V S ~ m ",
"; - ; - ; - = z n + z z # $ # $ # % # # 5 G = # $ @ $ # $ # $ # $ # 6 F = $ * H < o o O o o = P b ( 8 o + O + O O # & * % = I i ",
"M M M M N M M ! F b I G M N N N N N N M D T M N N N N N N N N N N M D T M M D E , + O + O O ; K : h / 5 + O + O + + O + 5 8 J F ",
"3 3 3 3 3 3 2 B S 2 3 3 3 3 3 3 3 4 3 3 3 3 3 3 3 3 3 3 3 3 3 3 3 3 3 3 3 3 0 W , O O + O O ; I , X x ~ 2 o + O O O O ; m N 8 5 ",
"O o O o O o o u M o = h d h h l h s h h h h h h h h h h h h h k j i g g g g l E c r @ + + O e Y a O + v W < + + + + O $ S l @ + ",
"O O O O + O o i M o 3 Q s p p x ] f p a p a p a a a a p a p p v ' a y y y y y i p U v $ o o e C y O O O M R , o O O O X b l o + ",
"+ O + O + O O i M o 3 L * o o * T 1 X O o O o o O o O o O o O f k ; t u u u u i r 4 L V * O # ; # O + O @ B U : O + O O v k o @ ",
"O O O o O o X i M o 2 L * O o = T 1 o O o O O O O O + O + o 0 B : l b f h h h h K F 1 S H : o O O O + O O + A P - o o X v k X + ",
", > > ; , > > h c O 3 P ; $ # > P 3 @ % $ $ @ O + O + O + - V 6 i K u 0 0 q 0 0 , S I 2 m U 2 O + O + O + o $ F H 2 , , N j : < ",
"B B ! Z M B B / v o 3 ( n M F A I Z S z B S 2 O + O + O @ z s < G V n m m M m H K < n E 5 z R 6 O O + O + O O $ D H V C { F m V ",
"& $ B V & % % h N o 3 R 8 3 z Q 5 0 ^ e 4 R 0 O + O + o t n : n i + + @ + @ + % N T 2 j ~ 0 a Q t O + O + O + O @ * & % M V % * ",
"+ X c N + O o i M o 3 L * X 8 I $ $ H < o D q o O o o < V 2 s b % O + O O + O O O c Q 5 i / u e Q s @ O + O + O + O O o l M O + ",
"+ X c N + O o i M o 3 L * o 9 I % % J < ; P C i p p p x r 5 C , O O O O O + O @ - $ f ~ 0 0 ^ g 7 E x # O O + O + O O o l M O @ ",
"+ o c N + O o p M o 3 L * o 9 I % & K 1 < V D x v n } k > B w o + O O O O + o 6 B f O p / e 4 ! v 2 U N & O + O + + O o l M O @ ",
"+ X v B * % + i M o 2 L * X 9 I $ 8 E a O > & O o 5 Z > j l # = % o % & % + X q G i O o e / p , Y C 1 G D = O O O O O X l M O + ",
"+ o z R S K , i M o 3 L * o 9 I $ y D f O O O O - B 0 q B - 2 V m 8 n G m % X ; E 1 o O o 9 ~ h ; J H < C L , O + + O o l M O @ ",
"O O * > 3 ! 5 u M o 2 L * X q I % $ 3 & o + O + k f , Z 8 X 3 A H A ] S ! 0 7 y Y r 7 8 > o 3 ! c * C I < S k o O O O X l M O + ",
"+ O + o $ I 6 u m O 3 L * + c Y 9 O o + O + O e M ; v d # O @ ; % $ J z F N N C D N N ! v + o , W l $ K i h z O + + O o l M O @ ",
"O O O O $ Q C P l o 2 L * O l V 5 O O + O O > V 4 i m & O O + X O + F w O @ @ # + @ O f M O O X r F @ B p j z o O O O X l M O + ",
"+ O + O # w u J N o 3 L * O $ ; + + O + O $ c u 4 Z 3 o + O # 3 : # D 0 X i l c v M 0 s M + + o q S # B p j l o + + O o l M O @ ",
"+ O O O + o . u M o 2 L * O O O O + O + o i v : M t + O + o 5 S P M ! c y L c u u R m a m O O o q A @ B p j z o O O O o l M O + ",
"+ O + O + O o i M o 3 L * O O + O + O O 3 Z 1 g x # + O + o 1 M k q k P R f > o   z M d b + O o q S # B p j l o + > * o l M O @ ",
"+ O + O + O o p M o 3 L * O O + O + O o f m 7 S , o + O + O + $ + o X q Z @ o + X x ] A h + O o q A @ B p j l X 1 N c # l M O @ ",
"+ O + O + O o i M o 3 L * O O + O + O o f n s B @ O + O + O + O + O o d L ; o + o ; U M - O O o q S # B p j l X 1 L g @ l M O @ ",
"+ O + O + O o p M o 3 L * O O + O + O o g n s N @ O + O + O + O + O @ n D q o + O o c j o + + o q S # B p j z o + P u X l M O @ ",
"+ O + O + O o i M o 3 L * O O + O + O o f n a B @ O + O + O + O + O O 7 i * o + O O C b + O O o q A @ B p j z o + J u X l M O @ ",
"+ O + O + O o p M o 3 L * + O + O + O o g n a B @ o O O & @ + O + + + O O + O + O ; D A > O + o q S # B p j z O + J u X l M O @ ",
"+ O O O + O o i M o 2 L * O O O # , @ X f n s G 9 0 q w l f @ O O O O O O + O O o $ d p $ O O o 0 A @ B p j l o + J u . l M O + ",
"+ + + O @ O O i M o 3 ! g h h j k N t X f n d W n B B S N l $ O + + O O O + O + O + + + O + + o q S # B p j l O + J u X l M O @ ",
"O O O O + O o i M o 3 ~ g h h h n M 8 X f n a Z % $ $ * d 4 O O O o 1 p - @ t u @ + O + O O O o 0 A @ B p j l o + J u . l M O + ",
"+ O + O + O O i M o 3 L * o o O @ - + o f n d W n B B C M v # O + + x S e : A N - + O + O + + o q S # B p j l o + J u X l M O @ ",
"+ + % + + O o p m X 1 L * o o O o o o X f n s L 9 0 0 i b r + O + o d G ; @ G l + + O + O O O o q A @ B p j l o + J u . l M O + ",
"O 0 b 8 O O o a A 9 f P e q q w q w q q M l a A + X O o $ + + O + o w D # o N k o + O + O O + o q S # B p j l o + J u X l M O @ ",
"O d V q O O o s U l b m x c x c x c x c b 8 i S @ O + O + O + O + X w S # o B k o + O + O O O o q S @ B p j z o + J u . l M O + ",
"O 4 L * + O o i m & 4 4 5 5 4 5 4 5 4 5 4 3 l B # O @ + @ + @ + + o w Z # O M h O @ + + + + + o 0 Z # N i j l o + J u $ z b % & ",
"O 1 H % + O o p n q U M B V B V B V B V B V S d ; x l v v v v v v c F U c v W M x v b m f z z z S I c R e k z o + Y D C Y L K n ",
"& 6 A & + O o i n e D % # $ # $ # $ # $ # $ # + 2 ! a u i i i i i u p p i i ~ V y i i ~ m r y y u y u ! u j l o + K g 1 2 1 c R ",
"B U L * + O o p n e A @ o O o O o O o O o O O o 1 T - . o X o X # + o o X . v l X O . m d X o o o X X B p j l o + J y o o o w / ",
": r Y * O O o p n e K 8 9 0 9 0 9 0 9 0 9 0 9 9 s U e 0 q 0 q q j s @ - : : N h o + o m s o O O > w = N u j z o + J u o O O $ < ",
"o < L * O o o i n r ! n B V B V B V B V B V B B Z A c c v v v B N k & F N V G r O + o m d O + + z P H / e j l o + J u o O + o + ",
"; 9 H 2 : : ; f x e S # + @ + @ + @ + @ + @ + @ @ + + O + O + @ 3 = $ Y w & % # O + X m s o O O r z 6 P i k n ; > H i : ; : : > ",
"Z F I C Z Z Z ( z e S # O O o + O + O + O + + O + O + O + O + O O O $ U 8 O O + O + o M d o # $ + O o N p x R Z F R G H ~ N D D ",
"= = = = - = * l m e S @ $ t 8 + O + O + O + O O O O + O + O + O + O $ U 8 O O + O + o m s @ g M 7 3 4 C t k n = ; - ; > W r - : ",
"+ O + O + O o i n e S @ 5 Z b & O + o + O O O O + O + o + O + O O O # P 7 O o + O + X n s % C U Z V A ] r j l o O O O @ J 8 o @ ",
"+ O + O + O o p n e S @ - Y e + O % i p d d d h u a d f g y d d d d h E z d g s u d f J r O 1 3 $ $ # S p j z o + O O @ J 8 o + ",
"O O O o O o o i n e S @ # U 7 O O - E g s d a L I p d f ( b s d d d d g d d z ) f s g ` y O O o + O O B p j l o + O O @ J 8 o + ",
"> > > < u , o p n e S @ # U 8 o o - I > X O . u D + O X B p o o O o o o o O # J 1 o X S i O O O + O O B p j z o + + O @ P y : > ",
"V V C F M d X i n e G 2 4 I r 1 1 9 H > o + O c L ; O o B i O O + O > : O + $ J 2 O o S i o O O + O O B p j l o O O O @ G F V V ",
"* & * 4 s > o p n r ! n C K V B B Z m - O + # M A 5 O o A V k l z c x b & + $ J 2 O + K f O + O + O O B p j z O + + O + % * & = ",
"O O O o + o o i n e D & # # # $ # $ @ + O + O 2 7 @ O o C b e t t p c d # O $ J 2 o , J B * O O + O O B p j l o O O O O O O O + ",
"+ + + O @ O O p n e S # O + O + O + O + O + + O O O + o N i o o O o % $ O + $ J 2 O - N g $ + + + O + B p j z O + + + + O + O @ "
};
