/* XPM */
static char *bWlzc2xlc2NhcmFybQ__[] = {
/* columns rows colors chars-per-pixel */
"64 64 151 2 ",
"   c #000500",
".  c #030B00",
"X  c #061000",
"o  c #0C1300",
"O  c #0D1900",
"+  c #141600",
"@  c #131B03",
"#  c #181D06",
"$  c #161D08",
"%  c #1B1F08",
"&  c #172208",
"*  c #1C240C",
"=  c #1D280D",
"-  c #1E2612",
";  c #1C2810",
":  c #21260E",
">  c #22290F",
",  c #222710",
"<  c #232B13",
"1  c #292E16",
"2  c #262E18",
"3  c #2A2F18",
"4  c #263015",
"5  c #2A3116",
"6  c #273418",
"7  c #2C341B",
"8  c #2D391E",
"9  c #31351D",
"0  c #32391E",
"q  c #2D3521",
"w  c #2F3B20",
"e  c #323720",
"r  c #343B23",
"t  c #393D25",
"y  c #373F29",
"u  c #3B3F29",
"i  c #364126",
"p  c #3A4026",
"a  c #364329",
"s  c #3C432B",
"d  c #3E482D",
"f  c #3F4730",
"g  c #3E4B31",
"h  c #41462D",
"j  c #42492F",
"k  c #434730",
"l  c #444B32",
"z  c #494E35",
"x  c #474F39",
"c  c #4A4F38",
"v  c #465035",
"b  c #4B5137",
"n  c #445139",
"m  c #4C533A",
"M  c #4F583D",
"N  c #50523A",
"B  c #50543D",
"V  c #53553D",
"C  c #51553E",
"Z  c #53573E",
"A  c #52563F",
"S  c #51553D",
"D  c #545B3E",
"F  c #4D5941",
"G  c #535740",
"H  c #525740",
"J  c #595643",
"K  c #555940",
"L  c #565840",
"P  c #575941",
"I  c #555B41",
"U  c #565A41",
"Y  c #555942",
"T  c #565A43",
"R  c #535C41",
"E  c #575D43",
"W  c #555E43",
"Q  c #575B44",
"!  c #565C42",
"~  c #5A5C44",
"^  c #5A5E47",
"/  c #5C5C44",
"(  c #595E44",
")  c #5B5F48",
"_  c #5C5E48",
"`  c #576045",
"'  c #576043",
"]  c #5B6147",
"[  c #5B6146",
"{  c #536148",
"}  c #5C6049",
"|  c #5C6248",
" . c #5E6249",
".. c #5D614A",
"X. c #5F634A",
"o. c #5E644A",
"O. c #5D6349",
"+. c #5E684D",
"@. c #606547",
"#. c #616149",
"$. c #61654C",
"%. c #60644D",
"&. c #62644C",
"*. c #61674D",
"=. c #61664B",
"-. c #64694D",
";. c #686D4F",
":. c #626750",
">. c #636750",
",. c #636650",
"<. c #686753",
"1. c #676951",
"2. c #656B51",
"3. c #676B52",
"4. c #666B51",
"5. c #6A6A52",
"6. c #6A6C54",
"7. c #6C6E56",
"8. c #6E6E56",
"9. c #696D53",
"0. c #6D6F59",
"q. c #706F5B",
"w. c #677055",
"e. c #6C7055",
"r. c #69735B",
"t. c #6C7258",
"y. c #6D715A",
"u. c #71735B",
"i. c #73755D",
"p. c #74745C",
"a. c #76765E",
"s. c #71755C",
"d. c #74785F",
"f. c #707861",
"g. c #777961",
"h. c #727C64",
"j. c #757B62",
"k. c #7A7A62",
"l. c #787A65",
"z. c #7E7D69",
"x. c #807D6A",
"c. c #7D806B",
"v. c #81816B",
"b. c #8D8D75",
"n. c #8F8F77",
"m. c #909078",
"M. c #95957D",
"N. c #969883",
"B. c #9D9D85",
"V. c #A6A591",
"C. c #A6A893",
/* pixels */
"h.8 6 7 < 6 < y - 8 8 7 8 6 2 6 8 7 > = s 5 0 5 i r 8 i i 0 8 0 r h s r u h u t h 9 e z u B s l h s m h h 0 l j b j V 9 u a.a.x.",
"r.X 2 m r y q & f y q q r q w l 8 i 4 i d p d d d j g p 8 6 d ' l m m N V c k c 9 u _ G z B H c _ U m m l D =.#.D V u V 8.p.b.5.",
"f.- & q 7 2 ; q w y w y y y r y < 5 & d p d i p 7 i s i 5 4 i v u u e u k t e k : % l u k k z u h j 0 e : h h h h 9 + h D 8.M.8.",
"r O % < 7 &   2 & - 2 < - 7 2 O * & o 8 6 4 > = = = = > > 4 > 4 7 3 , 1 e e 9 t 3 % 7 3 e t u r p b m V u m m h z u h u h a.m./ ",
"y o y x y l k y k q r s a f n l b d d l d 7 v v ' b j j v M Z b s T ~ S J _ _  . .%.,.B e S ~ -.M ' t.*.4.4.5.b z P 5.#.N p.m.@.",
"l & & @ - l f f a $ - x k q s m j d b i > O v m v M M m b M b l # k _ c k k x c c ] H e * T T b [ M [ m o.E V 7 k #.Z ;./ V M.a.",
"k r 3 , x ^ e k s < y ..m f x c l v m l 7 7 [ R v S [ O.[ E m j t U  .U S S V ~ / U U l z u.;.D *.[  .[ | o.E j 6.a.#./ N D x.8.",
"H 7 c Y H _ m H T m _ _ z H ,.m D Z V -.V 9.y.S -.=.O.' +.-.+.E s.3.~ E 4.y.9.9.y.D u.u.g.$.@.-.d b ` y.E *.*.e.[ / 8.u z x.8./ ",
"l D z m E l Z e.~ ,.+.~ o.+. .*.[ ~ ` E E E E R o.] ] ]  . .=.+.E E / [ ' @.@.@.' @./ @.@.' / / m R ] | ] [  . .b 9.V 0 #.V N #.",
"N [ b m [ S Z [ U +. .U [ [ E ~ ] [ [ E E E E U o.o.o.] ]  .[  .D P E D / / / [ D / / D / D D D R ` ] o.+.o. . .l =.V u 8.#.V 5.",
"h V h z $.=.#.#.U $. .E [ ~ U ~ [ ~ [ ~ E E T E  . .] ] [ ~ / [ D D D D / / / @.#.@.@./ / / D D R R U ~ ]  . .~ h c h t 5.#.V 5.",
"r h 9 j $.=.#.;.U  .~ U [ ] ~ o.] ~ _ ~ ~ E ~ ~ ] ~ ~ [ ~ ~ / [ / D / D D @.-.-.@.@.@.@.@./ / ' E Z R U ]  .[ ~ h h 0 9 @.J J 5.",
"h j 9 z -.V D ;.V / / V E E D /  . .[ ] ~  .~ _ E ~ E E / [ [ [ / / ' @.@.-.;.;.@.-.@.@.@.' D D ] ` E [ o.$.o. .z z u t #.#./ 5.",
"b b t N -.V / ;.D @.#.D E E D / _ ] ~  . .]  .] U U U ~ / / #.[ / @.@.@.-.;.;.;.-.;.;.@.-.@.@.@.o.` ~ `  .o.=.=.z z z h 5.@./ / ",
"h V p z @.@./ D D -.@.D / [ D [ ~ ] [ ] ~ [ ] ] ~ E E ~ D @.' @.' @.@.;.;.;.;.;.;.;.;.;.;.;.-.-.] ] [ [ ~ [ @.@.z N z h #./ / N ",
"p / h p V @.D h V D D D D / D / E ~ ~ E ~ ~ E ~ ~ ~ E ~ ' / ' / / / @.@.-.-.@.-.-.;.-.-.;.@.-.@.o.=.+.] / #.&.5.N N N t V Z J N ",
"z D p h @.D D ;.M U ~ E R Z E [ [ E [ D [ #.D [ @.D D D / ' @.@.~ / $.*.9.4.3.4.1.4.3.9.4.1.1.$.4.-.@.O.=.-.;.-.B z B 1 _ U c _ ",
"p D t 0 D @.@.' E E E E D R E ~ ' E D E D D ' D / D D @.D @.D @.[ [ =.1.1.3.4.4.4.4.4.4.3.9.9.9.*.-.@.@.;.;.;.;.t B N 1 Q G >...",
"h / p 0 D [ -.e.~ E R Z U E E E D D E D ' D D D D D D D D D ' ' ~ ] $.$.4.4.1.1.4.4.2.1.1.3.9.9.@.@.-.;.6.e.e.9.c P t 1 ..H y...",
"h V p 0 h 5 v d.+.[ R Z U E E R D D D [ D ' / D D D D D D / / ' ~  .o.*.1.4.1.-.4.1.1.*.2.1.-.-.-.@.-.;.;.6.e.6.t N c 9 u o h g.",
"h v h 0 h > j i.2.] E Z E [ ~ R D D D / / ' / D D D D D D D ' D E ~ o.$.1.-.>.1.*.*.4.4.5.1.2.$.e.;.;.;.;.;.9.e.P h k 1 H r u >.",
"p V z 0 [ b o.4.*. .E E _ ] [ E / D D D D / / [ ' / / ' ' D ' ' ~ [ o.$.>.$.$.$.$.1.1.y.e.e.9.9.e.e.;.;.=.;.5.6.h x _ e _ G B 0.",
"0 t 5 > *.Z =.' $.o.] ] ] o. .[ D / D D D [ [ @.[ ' ' / / [ [ @.~ _  .$.-.,.$.$.2.1.9.9.r.7.e.e.e.;.e.;.;.-.1.;.h e 1 + ] ,. .B ",
"p 5 * = 2.z [ e.$.+.o.o.o.+.+.] ' ' D D D D [ @.[ @.[ [ [ [ [ [ ~ [  .$.$.$.$.+.3.9.3.4.1.9.9.e.;.;.;.e.;.-.1.;.h h * # T k ,.6.",
"t b 0 p R U E 4.+.$.o.+. .o. .] ' ' D D #./ @.@.[ [ [ [ [ @.o.[  . .+.$.1.1.2.$.4.4.3.3.3.3.4.4.;.;.;.;.;.9.6.e.h h h 1 _ z Q 0.",
"0 z t s M b U y.o.o.o.=.+.] ]  ./ D D D D ' [ [ @.@.O.@.[ [ @.o.o. .$.$.1.1.1.1.1.1.3.3.3.3.4.4.-.;.@.-.-.;.;.6.h z k > J N Q Q ",
"h b 0 0 E b R 9. .o.o.o.+. .] ] / D D D ' ' [ [ o.o.@.[ [ o.o.@.$.$.$.$.1.3.4.3.1.2.1.5.1.1.2.1.@.@.@.-.-.5.9.9.h N z 1 ^ c Q ..",
"h N p 0 Z b Z [ [  .[ o.] ] ] ] @.D D D ' [ [ [ @.@.o.@.o.o.@.@.-.$.$.$.2.3.9.9.2.1.1.>.1.2.2.-.=.@.=.-.-.-.9.9.k j k 9 Q s m 6.",
"0 N j 5 N v E ' ` [ ] ] ] ] ] ] / D D D @.@.@.[ o.o.@.[ @.o.@.@.1.$.#.$.2.1.1.1.-.-.$.-.-.-.-.=.=.@.-.;.;.5.5.9.k z k , G x m Q ",
"h b p > [ [ -.E E E ` [ ] [ ] ` @.' / D ' [ @.[ @.[ [ [ [ [ [ @.+.$.o.$.$.2.2.2.$.$.%.%.%.=.=.=.@.@.@.-.1.;.;.5.k N k % J ..>.Q ",
"v l 0 > [ b o.-.E E E ~ E ] E ~ ' ' D @.@.@.[ @.[ [ [ [ [ [ @.[  ._  . .$.$.+. . . . . ._ #.[ @.=.@.@.;.-.-.-.1.h z k , H l ~ 7.",
"0 d v 5 h @ j d.E E E E [ E ] E / D D D D @.@.[ [ [ [ [ [ [ ' [ [ /  . .$.$...~  .[ _  . .[ #.#.@.@.@.@.;.#.-.-.k u l e k o 7 s.",
"i ' g 4 m a i M +.` E [ ~ E E E R U E ~ ] ]  .] o.+. .] [ ~ E E E E ~ ] o.o. .[ ] ] | ] ] ] E E o.@.@.@.@.@.@.-.p b Z 1 z l m l ",
"w v a 4 M M M | ] R R E E U R U R R E U ] ] ] +. .] ] [ ` E E E E E ` o.+.o.] [ ] ] ] ] ` E E E O.O.o.o.' @.@.@.p h p : m z T G ",
"8 w 6 = n R +.+.] W U E E E R E U U U U E [ ] | [ ~ [ E E E U R E E [ ] o.+.+.] [ E E T E E E E ' @.o.@.@.' / @.h 0 5 # m c _ ..",
"8 8 6 = d M [ ' +.` ` ] ] E E ~ E U R R R E ] | ] ` E E E E U R ~ E E ]  .o. . .[ ~ U R U E [ [ @.@.@.@.' @.@.@.h i 7 # x b _ _ ",
"a i w 4 g M { { +.] ` | | ] ] +.E E R U R E ~ ] [ ] ~ ` [ E E E E U E E ] ]  .] E E E R Z E ~ ' ' @.@.@.@.' @./ s h u # x c _ R ",
"i g i 4 v m ' | | ` E ] ] ] ` ] [ E E E E E ` ~ ] ] ] ] ~ [ [ E E R E E [ ] ] [ [ E E E E E E ' D ' ' @.' ' ' ' e l k % k c _ H ",
"w g 8 = m M M | ] W R E [ E E [ ~ [ E E E E E E ] ] [ E [ / ' [ E E E E ] ] ] ] [ E [ E E E E D M D ' ' ' ' ' / p h s * x x _ Y ",
"w g 8 & M F n +.` W E [ ] ^ E ] ` E ] [ ] ] E E ] ] E ] ' ' / E E E E E ] o.]  .E [ [ [ E E E Z M ' ' @.@.' @.@.j s u - b l Y Y ",
"w g w 6 n M M M { ' [ [ ] ] ] [ ] ] ] ] ] ~ ] ] ' ' ' / @.' [ / [ ` [ E ` E [ E ] ] E ] ` ] E [ D D ' ' [ [ #.[ r j k + m B B T ",
"w g w & g R { +.E ` E [ ] ] ] ] ] ~ ` ] ` ] ] ` D ' D / @.' [ [ [ _ E [ ~ E E E [ E ] E ~ E ] E ' / ' @.' [ [ [ l 9 c 7 u s %.>.",
"6 d g 8 6 & i c.` ` E [ [ ] ] ` ` ] [ ~ E [ ~ ` D @.' ' ' ' ' ' ] ] ] E E [ E E ` ^ E ] E [ ~ ' ' ' / ' ' ' D [ 0 0 h : r # 3 _ ",
"a i i w g & = ' R ` E [ E ~ ` ~ E E E E E ` ~ E D D ' ' ' @.#.' E E ] E ` ~ E E E E ] E [ ` [ [ ' @./ D ' D ' [ p h z > c , , U ",
"6 g g 4 g g g D E R E E ~ [ E E ~ ` E E [ E E E ' D ' ' ' @.' ' ] E ] E E E E E ~ ` E [ ` ] [ ~ @.' ' ' ' ' [ [ h 1 l 9 k s T H ",
"& w w = i a M +.R R E E ` E E E E E E E E E E E D D ' ' ' ' ' ' E E E E E E E R E E ~ ` E [ ] [ @.@.@.@.O.' @.O.r , 3 o y k m m ",
"i = O O v v d M R R E E E E E R E E E U U R E E D ' ' ' ' ' ' ' ] E ] E E E E E E E E [ ~ ` ] [ @.@.@.@.-.-.-.=.e p 3   l k u T ",
"6 i 8 = v g v R D R E D E E E E E D E D E E E E D D D ' ' ' ' ' E E E E E E E T E E ~ ` ] ] ] ] @.@.@.@.-.-.-.-.d < q - f f m m ",
"8 i 8 O M s j [ R R R ' ' D ' D D M D M ' D ' ' D D D D ' ' ' ' E E E E E E U E E E E E [ [ o.o.@.@.;.;.w.2.w.w.a w g o f F g F ",
"4 d a O v M R M M D D D M M D D ' D D ' ' ' ' ' D ' D D ' ' ' ' E [ E [ E [ E [ E ] E [ [ o.o.=.@.@.@.;.4.4.w.w.t 4 a ; g a g { ",
"< r d ; j 0 k M M D D D D D D D D D D ' ' ' ' ' ' ' D ' ' ' ' ' ] ] ] ] | o.o. .] ] ` ]  .o.o.o.@.-.;.;.4.w.w.w.a 4 w ; g w g g ",
"r 4 i 6 v 6 l F D D ' D ' ' D ' D D D R ' @.@.@.' ' ' ' ' ' ' ' E E ]  . .+.o. .E [ ] ~ [ [ o.#.@.@.@.;.-.2.+.w.a r y ; a a { a ",
"q r t $ l M +.M D ' ' ' ' ' ' D D D D R ' [ [ [ @.' ' ' ' ' ' ' E E ] ] +.#.o.+.] E ^ E / ' [ [ @.@.-.-.o.+.*.-.a q y - a a { F ",
"4 q y & y 4 l F M D M D D D D D ' R D ' +.' +.[ ' @.' ' ' ' ' ' E E ~ +.o. . .] ] E ` E E E E ' @.@.@.O.O.O.o.+.y 7 a 2 y $ y F ",
"< r a - t o < ^ ' M D ' ' D ' D ' ' ' ' ' +.[ [ @.@.' ' ' ' ' ' E E ] +.$.+.+. .] ] [ E E E D ' =.=.@.O.O.O.o.+.s 4 f - q $ ; g ",
"8 s r o l a s H ' ' ' ' ' ' ' ' [ [ ' ' [ ' [ [ @.' @.' D M M ' E [  .$.$.+.] ] ] ] ] ] [ [ #.' =.-.-.O.O.O.=.-.y 8 f O f f q x ",
"2 2 q q y f y l i v d d j j j j l p l v j d d b l v l d l v b l k d h l v z j l l b 0 b l D b l N j b D m z b l h * c h e k _ H ",
"q - < 2 7 7 & - 4 6 6 4 4 4 4 8 7 7 4 = 4 d i < p s p i r 8 t a m m b z h h l b p 1 l z h j j b b j b j p j Z E .._ k s _ ,.z.q.",
"q O < y y s q 3 d g g d i i i j a 8 2 s b k f x g d k f i 8 a m j l b b b b v l j * [ D D V N #.D M D v u h E [ x T < k l.0.N.,.",
"e X - q 2 < $ o 6 = = 4 4 = > > - o   q s = = 4 < = , < = $ - r 1 > : > 9 0 9 > :   7 7 > 7 7 > 5 0 s 0 > 7 u r u e # e f H C.,.",
"y o < q 2 2 2 - a - < e 0 0 i 8 r r < r s y f 6 a y r y y r s l l z j d h b b b b v Z E 0 b +.v M @.;.;...9.9.~ J J _ _ H _ V.x.",
"q o 2 q q f F F s - < s d d l d s F f l q $ f m H b n l n m m x 1 s D Z b z D D b O.m l & i ' M D M D D R ~ U h , J q.J _ J q.<.",
"q - - - 2 y r r s - 8 n k s b v a m f M r X s +.Y ^ ] R E } E b * s ` [ V V V D @.o.O.j 0 D @.@.+.@.@.+...+.^ c J q.q.J #.<.x.q.",
"y q y q F ..F x b q k +.n d M m l } l x b l 2.F n Y ^ F F ` W l E -.-.D S E @.[ e.v -.v @.s.' ' M v M @..._ ^ H <._ J J c J x.u "
};
