/* XPM */
static char *Vml0YWxzKzEtMS5wbmc_[] = {
/* columns rows colors chars-per-pixel */
"128 64 3 1 ",
"  c #605C5C",
". c #EC3434",
"X c #B8ACAC",
/* pixels */
"                                                                                                                                ",
"                                                                                                                                ",
"                                                                                                                                ",
"                                                                                                                                ",
"    XXXXXXXXXXXXXXXXXXXXXXXXXXXXXXXXXXXXXXXXXXXXXXXXXXXXXXXXXXXXXXXXXXXXXXXXXXXXXXXXXXXXXXXXXXXXXXXXXXXXXXXXXXXXXXXXXXXXXXXX    ",
"    XXXXXXXXXXXXXXXXXXXXXXXXXXXXXXXXXXXXXXXXXXXXXXXXXXXXXXXXXXXXXXXXXXXXXXXXXXXXXXXXXXXXXXXXXXXXXXXXXXXXXXXXXXXXXXXXXXXXXXXX    ",
"    XXXXXXXXXXXXXXXXXXXXXXXXXXXXXXXXXXXXXXXXXXXXXXXXXXXXXXXXXXXXXXXXXXXXXXXXXXXXXXXXXXXXXXXXXXXXXXXXXXXXXXXXXXXXXXXXXXXXXXXX    ",
"    XXXXXXXXXXXXXXXXXXXXXXXXXXXXXXXXXXXXXXXXXXXXXXXXXXXXXXXXXXXXXXXXXXXXXXXXXXXXXXXXXXXXXXXXXXXXXXXXXXXXXXXXXXXXXXXXXXXXXXXX    ",
"    XXXXXXXXXXXXXXXXXXXXXXXXXXXXXXXXXXXXXXXXXXXXXXXXXXXXXXXXXXXXXXXXXXXXXXXXXXXXXXXXXXXXXXX..XXXXXXXXXXXXXXXXXXXXXXXXXXXXXXX    ",
"    XXXXXXXXXXXXXXXXXXXXXXXXXXXXXXXXXXXXXXXXXXXXXXXXXXXXXXXXXXXXXXXXXXXXXXXXXXXXXXXXXXXXXXX...XXXXXXXXXXXXXXXXXXXXXXXXXXXXXX    ",
"    XXXXXXXXXXXXXXXXXXXXXXXXXXXXXXXXXXXXXXXXXXXXXXXXXXXXXXXXXXXXXXXXXXXXXXXXXXXXXXXXXXXXXX....XXXXXXXXXXXXXXXXXXXXXXXXXXXXXX    ",
"    XXXXXXXXXXXXXXXXXXXXXXXXXXXXXXXXXXXXXXXXXXXXXXXXXXXXXXXXXXXXXXXXXXXXXXXXXXXXXXXXXXXXXX....XXXXXXXXXXXXXXXXXXXXXXXXXXXXXX    ",
"    XXXXXXXXXXXXXXXXXXXXXXXXXXXXXXXXXXXXXXXXXXXXXXXXXXXXXXXXXXXXXXXXXXXXXXXXXXXXXXXXXXXXX......XXXXXXXXXXXXXXXXXXXXXXXXXXXXX    ",
"    XXXXXXXXXXXXXXXXXXXXXXXXXXXXXXXXXXXXXXXXXXXXXXXXXXXXXXXXXXXXXXXXXXXXXXXXXXXXXXXXXXXXX..XX..XXXXXXXXXXXXXXXXXXXXXXXXXXXXX    ",
"    XXXXXXXXXXXXXXXXXXXXXXXXXXXXXXXXXXXXXXXXXXXXXXXXXXXXXXXXXXXXXXXXXXXXXXXXXXXXXXXXXXXX...XX..XXXXXXXXXXXXXXXXXXXXXXXXXXXXX    ",
"    XXXXXXXXXXXXXXXXXXXXXXXXXXXXXXXXXXXXXXXXXXXXXXXXXXXXXXXXXXXXXXXXXXXXXXXXXXXXXXXXXXXX..XXX..XXXXXXXXXXXXXXXXXXXXXXXXXXXXX    ",
"    XXXXXXXXXXXXXXXXXXXXXXXXXXXXXXXXXXXXXXXXXXXXXXXXXXXXXXXXXXXXXXXXXXXXXXXXXXXXXXXXXXX...XXX...XXXXXXXXXXXXXXXXXXXXXXXXXXXX    ",
"    XXXXXXXXXXXXXXXXXXXXXXXXXXXXXXXXXXXXXXXXXXXXXXXXXXXXXXXXXXXXXXXXXXXXXXXXXXXXXXXXXXX...XXXX..XXXXXXXXXXXXXXXXXXXXXXXXXXXX    ",
"    XXXXXXXXXXXXXXXXXXXXXXXXXXXXXXXXXXXXXXXXXXXXXXXXXXXXXXXXXXXXXXXXXXXXXXXXXXXXXXXXXX...XXXXX..XXXXXXXXXXXXXXXXXXXXXXXXXXXX    ",
"    XXXXXXXXXXXXXXXXXXXXXXXXXXXXXXXXXXXXXXXXXXXXXXXXXXXXXXXXXXXXXXXXXXXXXXXXXXXXXXXXXX...XXXXX..XXXXXXXXXXXXXXXXXXXXXXXXXXXX    ",
"    XXXXXXXXXXXXXXXXXXXXXXXXXXXXXXXXXXXXXXXXXXXXXXXXXXXXXXXXXXXXX..XXXXXXXXXXXXXXXXXXX..XXXXXX...XXXXXXXXXXXXXXXXXXXXXXXXXXX    ",
"    XXXXXXXXXXXXXXXXXXXXXXXXXXXXXXXXXXXXXXXXXXXXXXXXXXXXXXXXXXXXX..XXXXXXXXXXXXXXXXXX...XXXXXXX..XXXXXXXXXXXXXXXXXXXXXXXXXXX    ",
"    XXXXXXXXXXXXXXXXXXXXXXXXXXXXXX..XXXXXXXXXXXXXXXXXXXXXXXXXXXX...XXXXXXXXXXXXXXXXXX..XXXXXXXX..XXXXXXXXXXXXXXXXXXXXXXXXXXX    ",
"    XXXXXXXXXXXXXXXXXXXXXXXXXXXXX...XXXXXXXXXXXXXXXXXXXXXXXXXXXX...XXXXXXXXXXXXXXXXX...XXXXXXXX..XXXXXXXXXXXXXXXXXXXXXXXXXXX    ",
"    XXXXXXXXXXXXXXXXXXXXXXXXXXXX....XXXXXXXXXXXXXXXXXXXXXXXXXXXX...XXXXXXXXXXXXXXXX...XXXXXXXXX...XXXXXXXXXXXXXXXXXXXXXXXXXX    ",
"    XXXXXXXXXXXXXXXXXXXXXXXXXXXX....XXXXXXXXXXXXXXXXXXXXXXXXXXXX....XXXXXXXXXXXXXXX...XXXXXXXXX...XXXXXXXXXXXXXXXXXXXXXXXXXX    ",
"    XXXXXXXXXXXXXXXXXXXXXXXXXXXX....XXXXXXXXXXXXXXXXXXXXXXXXXXX.....XXXXXXXXXXXXXXX..XXXXXXXXXXX..XXXXXXXXXXXXXXXXXXXXXXXXXX    ",
"    XXXXXXXXXXXXXXXXXXXXXXXXXXX.....XXXXXXXXXXXXXXXXXXXXXXXXXXX..X..XXXXXXXXXXXXXX...XXXXXXXXXXX..XXXXXXXXXXXXXXXXXXXXXXXXXX    ",
"    XXXXXXXXXXXXXXXXXXXXXXXXXXX..X...XXXXXXXXXXXXXXXXXXXXXXXXX...X..XXXXXXXXXXXXX...XXXXXXXXXXXX...XXXXXXXXXXXXXXXXXXXXXXXXX    ",
"    XXXXXXXXXXXXXXXXXXXXXXXXXX...XX..XXXXXXXXXXXXXXXXXXXXXXXXX..XX..XXXXXXXXXXXXX...XXXXXXXXXXXX...XXXXXXXXXXXXXXXXXXXXXXXXX    ",
"    XXXXXXXXXXXXXXXXXXXXXXXXXX..XXX..XXXXXXXXXXXXXXXXXXXXXXXX...XX..XXXXXXXXXXXX...XXXXXXXXXXXXXX....XXXXXXXXXXXXXXXXXXXXXXX    ",
"    ............................XXX..XXXXXX.....................XX..XXXXXXXXXXXX...XXXXXXXXXXXXXX...........................    ",
"    ...........................XXXX...XXXXX....................XXX...XXXXXXXXXX...XXXXXXXXXXXXXXXXX.........................    ",
"    XXXXXXXXXXXXXXXXXXXXXXXXXXXXXXXX..XXXX...XXXXXXXXXXXXXXXXXXXXXX..XXXXXXXXXX...XXXXXXXXXXXXXXXXXXXXXXXXXXXXXXXXXXXXXXXXXX    ",
"    XXXXXXXXXXXXXXXXXXXXXXXXXXXXXXXX..XXXX...XXXXXXXXXXXXXXXXXXXXXX..XXXXXXXXX...XXXXXXXXXXXXXXXXXXXXXXXXXXXXXXXXXXXXXXXXXXX    ",
"    XXXXXXXXXXXXXXXXXXXXXXXXXXXXXXXX...XXX..XXXXXXXXXXXXXXXXXXXXXXX..XXXXXXXXX...XXXXXXXXXXXXXXXXXXXXXXXXXXXXXXXXXXXXXXXXXXX    ",
"    XXXXXXXXXXXXXXXXXXXXXXXXXXXXXXXXX..XX...XXXXXXXXXXXXXXXXXXXXXXX..XXXXXXXX...XXXXXXXXXXXXXXXXXXXXXXXXXXXXXXXXXXXXXXXXXXXX    ",
"    XXXXXXXXXXXXXXXXXXXXXXXXXXXXXXXXX..XX..XXXXXXXXXXXXXXXXXXXXXXXX...XXXXXXX...XXXXXXXXXXXXXXXXXXXXXXXXXXXXXXXXXXXXXXXXXXXX    ",
"    XXXXXXXXXXXXXXXXXXXXXXXXXXXXXXXXX......XXXXXXXXXXXXXXXXXXXXXXXXX..XXXXXXX..XXXXXXXXXXXXXXXXXXXXXXXXXXXXXXXXXXXXXXXXXXXXX    ",
"    XXXXXXXXXXXXXXXXXXXXXXXXXXXXXXXXXX.....XXXXXXXXXXXXXXXXXXXXXXXXX..XXXXXX...XXXXXXXXXXXXXXXXXXXXXXXXXXXXXXXXXXXXXXXXXXXXX    ",
"    XXXXXXXXXXXXXXXXXXXXXXXXXXXXXXXXXX....XXXXXXXXXXXXXXXXXXXXXXXXXX...XXXXX..XXXXXXXXXXXXXXXXXXXXXXXXXXXXXXXXXXXXXXXXXXXXXX    ",
"    XXXXXXXXXXXXXXXXXXXXXXXXXXXXXXXXXX....XXXXXXXXXXXXXXXXXXXXXXXXXXX..XXXXX..XXXXXXXXXXXXXXXXXXXXXXXXXXXXXXXXXXXXXXXXXXXXXX    ",
"    XXXXXXXXXXXXXXXXXXXXXXXXXXXXXXXXXXX..XXXXXXXXXXXXXXXXXXXXXXXXXXXX..XXXX...XXXXXXXXXXXXXXXXXXXXXXXXXXXXXXXXXXXXXXXXXXXXXX    ",
"    XXXXXXXXXXXXXXXXXXXXXXXXXXXXXXXXXXXXXXXXXXXXXXXXXXXXXXXXXXXXXXXXX..XXXX..XXXXXXXXXXXXXXXXXXXXXXXXXXXXXXXXXXXXXXXXXXXXXXX    ",
"    XXXXXXXXXXXXXXXXXXXXXXXXXXXXXXXXXXXXXXXXXXXXXXXXXXXXXXXXXXXXXXXXX..XXX...XXXXXXXXXXXXXXXXXXXXXXXXXXXXXXXXXXXXXXXXXXXXXXX    ",
"    XXXXXXXXXXXXXXXXXXXXXXXXXXXXXXXXXXXXXXXXXXXXXXXXXXXXXXXXXXXXXXXXX...XX...XXXXXXXXXXXXXXXXXXXXXXXXXXXXXXXXXXXXXXXXXXXXXXX    ",
"    XXXXXXXXXXXXXXXXXXXXXXXXXXXXXXXXXXXXXXXXXXXXXXXXXXXXXXXXXXXXXXXXXX..XX..XXXXXXXXXXXXXXXXXXXXXXXXXXXXXXXXXXXXXXXXXXXXXXXX    ",
"    XXXXXXXXXXXXXXXXXXXXXXXXXXXXXXXXXXXXXXXXXXXXXXXXXXXXXXXXXXXXXXXXXX......XXXXXXXXXXXXXXXXXXXXXXXXXXXXXXXXXXXXXXXXXXXXXXXX    ",
"    XXXXXXXXXXXXXXXXXXXXXXXXXXXXXXXXXXXXXXXXXXXXXXXXXXXXXXXXXXXXXXXXXX.....XXXXXXXXXXXXXXXXXXXXXXXXXXXXXXXXXXXXXXXXXXXXXXXXX    ",
"    XXXXXXXXXXXXXXXXXXXXXXXXXXXXXXXXXXXXXXXXXXXXXXXXXXXXXXXXXXXXXXXXXXX....XXXXXXXXXXXXXXXXXXXXXXXXXXXXXXXXXXXXXXXXXXXXXXXXX    ",
"    XXXXXXXXXXXXXXXXXXXXXXXXXXXXXXXXXXXXXXXXXXXXXXXXXXXXXXXXXXXXXXXXXXX....XXXXXXXXXXXXXXXXXXXXXXXXXXXXXXXXXXXXXXXXXXXXXXXXX    ",
"    XXXXXXXXXXXXXXXXXXXXXXXXXXXXXXXXXXXXXXXXXXXXXXXXXXXXXXXXXXXXXXXXXXX...XXXXXXXXXXXXXXXXXXXXXXXXXXXXXXXXXXXXXXXXXXXXXXXXXX    ",
"    XXXXXXXXXXXXXXXXXXXXXXXXXXXXXXXXXXXXXXXXXXXXXXXXXXXXXXXXXXXXXXXXXXXX..XXXXXXXXXXXXXXXXXXXXXXXXXXXXXXXXXXXXXXXXXXXXXXXXXX    ",
"    XXXXXXXXXXXXXXXXXXXXXXXXXXXXXXXXXXXXXXXXXXXXXXXXXXXXXXXXXXXXXXXXXXXXXXXXXXXXXXXXXXXXXXXXXXXXXXXXXXXXXXXXXXXXXXXXXXXXXXXX    ",
"    XXXXXXXXXXXXXXXXXXXXXXXXXXXXXXXXXXXXXXXXXXXXXXXXXXXXXXXXXXXXXXXXXXXXXXXXXXXXXXXXXXXXXXXXXXXXXXXXXXXXXXXXXXXXXXXXXXXXXXXX    ",
"    XXXXXXXXXXXXXXXXXXXXXXXXXXXXXXXXXXXXXXXXXXXXXXXXXXXXXXXXXXXXXXXXXXXXXXXXXXXXXXXXXXXXXXXXXXXXXXXXXXXXXXXXXXXXXXXXXXXXXXXX    ",
"    XXXXXXXXXXXXXXXXXXXXXXXXXXXXXXXXXXXXXXXXXXXXXXXXXXXXXXXXXXXXXXXXXXXXXXXXXXXXXXXXXXXXXXXXXXXXXXXXXXXXXXXXXXXXXXXXXXXXXXXX    ",
"    XXXXXXXXXXXXXXXXXXXXXXXXXXXXXXXXXXXXXXXXXXXXXXXXXXXXXXXXXXXXXXXXXXXXXXXXXXXXXXXXXXXXXXXXXXXXXXXXXXXXXXXXXXXXXXXXXXXXXXXX    ",
"    XXXXXXXXXXXXXXXXXXXXXXXXXXXXXXXXXXXXXXXXXXXXXXXXXXXXXXXXXXXXXXXXXXXXXXXXXXXXXXXXXXXXXXXXXXXXXXXXXXXXXXXXXXXXXXXXXXXXXXXX    ",
"    XXXXXXXXXXXXXXXXXXXXXXXXXXXXXXXXXXXXXXXXXXXXXXXXXXXXXXXXXXXXXXXXXXXXXXXXXXXXXXXXXXXXXXXXXXXXXXXXXXXXXXXXXXXXXXXXXXXXXXXX    ",
"                                                                                                                                ",
"                                                                                                                                ",
"                                                                                                                                ",
"                                                                                                                                "
};
